<svg xmlns="http://www.w3.org/2000/svg" width="141" height="34"><defs><linearGradient id="a" x1="0%" x2="100%" y1="0%" y2="0%"><stop offset="0%" stop-color="#EC0042"/><stop offset="100%" stop-color="#EC0083"/></linearGradient></defs><path fill="none" d="M78.147 26.663v-1.037c-.27.304-.721.607-1.353.911-.633.303-1.379.455-2.239.455-1.906 0-3.465-.649-4.679-1.947-1.214-1.299-1.821-2.968-1.821-5.008 0-2.074.569-3.756 1.707-5.046 1.138-1.29 2.66-1.935 4.566-1.935.876 0 1.627.152 2.251.455.623.304 1.053.599 1.29.885V8.377h4.223v18.286h-3.945zm-.936-9.017c-.523-.581-1.214-.872-2.074-.872-.86 0-1.552.303-2.074.91-.523.607-.784 1.4-.784 2.378 0 .978.261 1.762.784 2.352.522.591 1.214.885 2.074.885.876 0 1.572-.307 2.087-.923.514-.615.771-1.387.771-2.314 0-1.028-.262-1.834-.784-2.416zm-13.076-5.071c-.675 0-1.236-.215-1.682-.645-.447-.43-.67-.973-.67-1.631 0-.674.223-1.227.67-1.657.446-.43 1.007-.645 1.682-.645.674 0 1.239.22 1.695.658.455.439.682.986.682 1.644 0 .658-.227 1.201-.682 1.631-.456.43-1.021.645-1.695.645zM49.617 26.663L43.218 8.958h4.755l3.996 12.596 3.996-12.596h4.755l-6.399 17.705h-4.704zm16.668 0h-4.224V13.385h4.224v13.278z"/><path fill="url(#a)" d="M78.147 26.663v-1.037c-.27.304-.721.607-1.353.911-.633.303-1.379.455-2.239.455-1.906 0-3.465-.649-4.679-1.947-1.214-1.299-1.821-2.968-1.821-5.008 0-2.074.569-3.756 1.707-5.046 1.138-1.29 2.66-1.935 4.566-1.935.876 0 1.627.152 2.251.455.623.304 1.053.599 1.29.885V8.377h4.223v18.286h-3.945zm-.936-9.017c-.523-.581-1.214-.872-2.074-.872-.86 0-1.552.303-2.074.91-.523.607-.784 1.4-.784 2.378 0 .978.261 1.762.784 2.352.522.591 1.214.885 2.074.885.876 0 1.572-.307 2.087-.923.514-.615.771-1.387.771-2.314 0-1.028-.262-1.834-.784-2.416zm-13.076-5.071c-.675 0-1.236-.215-1.682-.645-.447-.43-.67-.973-.67-1.631 0-.674.223-1.227.67-1.657.446-.43 1.007-.645 1.682-.645.674 0 1.239.22 1.695.658.455.439.682.986.682 1.644 0 .658-.227 1.201-.682 1.631-.456.43-1.021.645-1.695.645zM49.617 26.663L43.218 8.958h4.755l3.996 12.596 3.996-12.596h4.755l-6.399 17.705h-4.704zm16.668 0h-4.224V13.385h4.224v13.278z"/><path fill-rule="evenodd" fill="#fff" d="M140.766 21.012h-8.701c.05.607.341 1.125.872 1.555.532.43 1.177.645 1.935.645.692 0 1.278-.155 1.758-.468.481-.311.822-.627 1.025-.948l2.782 2.15c-.304.624-.945 1.269-1.923 1.935-.978.666-2.217.999-3.718.999-2.141 0-3.853-.653-5.134-1.96-1.282-1.307-1.922-2.964-1.922-4.97 0-1.99.607-3.655 1.821-4.996 1.214-1.34 2.782-2.01 4.704-2.01 2.091 0 3.701.636 4.831 1.909 1.13 1.273 1.695 3.048 1.695 5.324 0 .354-.009.633-.025.835zm-4.895-4.085c-.379-.379-.889-.569-1.53-.569s-1.147.198-1.517.594a2.3 2.3 0 00-.633 1.379h4.3a2.096 2.096 0 00-.62-1.404zm-15.744 9.953c-.86 0-1.606-.152-2.239-.455-.632-.304-1.083-.607-1.353-.911v1.037h-3.946V8.264h4.224v6.02c.236-.286.666-.582 1.29-.885.624-.304 1.374-.455 2.251-.455 1.906 0 3.427.644 4.566 1.934 1.138 1.29 1.707 2.972 1.707 5.046 0 2.041-.607 3.71-1.821 5.008-1.214 1.299-2.774 1.948-4.679 1.948zm1.492-9.308c-.523-.607-1.214-.91-2.074-.91-.86 0-1.552.29-2.074.872-.523.582-.784 1.387-.784 2.416 0 .927.257 1.699.771 2.314.514.616 1.21.923 2.087.923.86 0 1.551-.295 2.074-.885.522-.59.784-1.374.784-2.352 0-.978-.262-1.771-.784-2.378zm-15.479 7.613c-.287.456-.725.852-1.315 1.189-.591.337-1.265.506-2.024.506-.792 0-1.479-.135-2.061-.405-.582-.269-1.029-.602-1.341-.999-.312-.396-.556-.893-.733-1.492a9.04 9.04 0 01-.341-1.644 16.914 16.914 0 01-.076-1.707v-7.361h4.224v7.917c0 .607.16 1.075.48 1.404.32.329.742.493 1.265.493.573 0 1.02-.177 1.34-.531.32-.354.481-.81.481-1.366v-7.917h4.224v13.279h-4.123v-1.366zm-12.545 1.366H89.27V12.716h-3.819v-3.87h11.963v3.87h-3.819v13.835z"/><path fill="none" d="M24.93 15.766L12.867 8.432c-1.083-.603-2.447.171-2.447 1.439v14.257c0 1.262 1.357 2.043 2.447 1.44l12.063-6.923c1.125-.624 1.125-2.248 0-2.879zM33.999 17C33.999 7.609 26.39.001 17 .001 7.609.001.001 7.609.001 17c0 9.39 7.608 16.999 16.999 16.999 9.39 0 16.999-7.609 16.999-16.999zM3.291 17C3.291 9.426 9.426 3.291 17 3.291S30.709 9.426 30.709 17 24.574 30.709 17 30.709 3.291 24.574 3.291 17z"/><path fill="url(#a)" d="M24.93 15.766L12.867 8.432c-1.083-.603-2.447.171-2.447 1.439v14.257c0 1.262 1.357 2.043 2.447 1.44l12.063-6.923c1.125-.624 1.125-2.248 0-2.879zM33.999 17C33.999 7.609 26.39.001 17 .001 7.609.001.001 7.609.001 17c0 9.39 7.608 16.999 16.999 16.999 9.39 0 16.999-7.609 16.999-16.999zM3.291 17C3.291 9.426 9.426 3.291 17 3.291S30.709 9.426 30.709 17 24.574 30.709 17 30.709 3.291 24.574 3.291 17z"/></svg>