<svg version="1.1" id="Слой_2_1_" xmlns="http://www.w3.org/2000/svg" x="0" y="0" width="245.5" height="280" xml:space="preserve"><style>.st1{fill:#fff}.st3{fill:#dadbed}.st7{fill:#616a9b}.st14{fill:#000612}.st20{fill:#940c39}</style><linearGradient id="SVGID_1_" gradientUnits="userSpaceOnUse" x1="22.904" y1="119.329" x2="211.479" y2="119.329"><stop offset="0" stop-color="#ff0041"/><stop offset="1" stop-color="#ff0086"/></linearGradient><path d="M200 223.3H34.4c-5.5 0-10-4.5-10-10V25.4c0-5.5 4.5-10 10-10H200c5.5 0 10 4.5 10 10v187.9c0 5.5-4.5 10-10 10z" fill="none" stroke="url(#SVGID_1_)" stroke-width="3" stroke-miterlimit="10"/><path class="st1" d="M226.5 189.8H7.9c-4.3 0-7.9-3.5-7.9-7.9V52.5c0-4.3 3.5-7.9 7.9-7.9h218.6c4.3 0 7.9 3.5 7.9 7.9V182c0 4.3-3.5 7.8-7.9 7.8z"/><linearGradient id="SVGID_2_" gradientUnits="userSpaceOnUse" x1="93.563" y1="113.783" x2="144.801" y2="113.783"><stop offset="0" stop-color="#ff0041"/><stop offset="1" stop-color="#ff0086"/></linearGradient><circle cx="119.2" cy="113.8" r="25.6" fill="url(#SVGID_2_)"/><path class="st1" d="M113 121.3v-15.1c0-.7.8-1.2 1.4-.8l13.5 7.6c.7.4.7 1.3 0 1.7l-13.5 7.5c-.6.3-1.4-.2-1.4-.9z"/><path class="st3" d="M21.8 172h181.5v.8H21.8z"/><linearGradient id="SVGID_3_" gradientUnits="userSpaceOnUse" x1="21.691" y1="172.251" x2="78.418" y2="172.251"><stop offset="0" stop-color="#ff0041"/><stop offset="1" stop-color="#ff0086"/></linearGradient><path fill="url(#SVGID_3_)" d="M21.7 171.1h56.7v2.2H21.7z"/><linearGradient id="SVGID_4_" gradientUnits="userSpaceOnUse" x1="74.725" y1="172.453" x2="80.249" y2="172.453"><stop offset="0" stop-color="#ff0041"/><stop offset="1" stop-color="#ff0086"/></linearGradient><path d="M80.2 172.5c0 1.5-1.2 2.8-2.8 2.8-1.5 0-2.8-1.2-2.8-2.8 0-1.5 1.2-2.8 2.8-2.8 1.6 0 2.8 1.2 2.8 2.8z" fill="url(#SVGID_4_)"/><path class="st3" d="M217.1 171.8h-.8v-2.4h2.4v.9h-1.6zm1.6 3.1h-2.4v-2.3h.8v1.5h1.6zm3.8 0h-2.4v-.8h1.6v-1.5h.8zm0-3.1h-.8v-1.5h-1.6v-.9h2.4z"/><linearGradient id="SVGID_5_" gradientUnits="userSpaceOnUse" x1="152.858" y1="99.261" x2="149.731" y2="105.202"><stop offset="0" stop-color="#fdc244"/><stop offset=".996" stop-color="#f17056"/></linearGradient><path d="M157.1 103.5s-3.5.5-4-1.9c-.6-2.4-6-1.9-6.9-1.9-.9 0 3.1 1.7 4 2.9.9 1.2 4.2 2.2 4.2 2.2l2.7-1.3z" fill="url(#SVGID_5_)"/><path class="st7" d="M152.6 104.5c1-.5 1.9-1 2.9-1.4 4.6.4 17.7 2.1 27.2 12.5 12.8 14 13.6 37.7 6.4 41.8-5.2 3-16.8-3.2-19.7-11.4-2.4-7 3-11.3 2.1-19.3-.5-5.7-4-13.6-18.9-22.2z"/><linearGradient id="SVGID_6_" gradientUnits="userSpaceOnUse" x1="2539.038" y1="-398.86" x2="2532.777" y2="-380.716" gradientTransform="rotate(24.776 91.71 -5663.347)"><stop offset="0" stop-color="#fdc244"/><stop offset=".996" stop-color="#f17056"/></linearGradient><path d="M108.8 150.7s.2-4.1-.4-5.3c-.7-1.2-3-1.3-5-2.2l-1.4-5.1s-1.7 3.5-1.1 6.1c.3 1.4 5.1 3.1 5.6 3.9.5.8 0 3.9 0 3.9l2.3-1.3z" fill="url(#SVGID_6_)"/><linearGradient id="SVGID_7_" gradientUnits="userSpaceOnUse" x1="-2904.564" y1="139.64" x2="-2918.697" y2="149.713" gradientTransform="matrix(-1 0 0 1 -2746.494 0)"><stop offset="0" stop-color="#fdc244"/><stop offset=".996" stop-color="#f17056"/></linearGradient><path fill="url(#SVGID_7_)" d="M161 138.2l3.2 4.5-3.1 2.6-2.7-5.5z"/><linearGradient id="SVGID_8_" gradientUnits="userSpaceOnUse" x1="2331.536" y1="1589.127" x2="2317.403" y2="1599.2" gradientTransform="rotate(-29.808 -1314.256 5083.32)"><stop offset="0" stop-color="#fdc244"/><stop offset=".996" stop-color="#f17056"/></linearGradient><path d="M160 140.7c-.3 0-2.4.9-3.3 0-1.2-1.2-.9-3.7-.9-4.1 0-1.6.1-1.8.3-2.2l.3-.5c.2-.3 1.2-.8 1.4-.9.7-.2 2.7 1.9 4.4 5.6.1.1.2.2.3.4.3.3-2.4 1.8-2.5 1.7z" fill="url(#SVGID_8_)"/><path d="M154.2 134.9c.6.5 1.9.7 2.5.8.1 0 .3.1.6.2l.1.1c.6.6 0 2 .3 2.2.3.1.9-.6 1.1-.4.2.1-.2.9 0 1 .2.1.5-.2.8-.1.2.1.2.2.5.5.2.2.4.4.6.5.7.4 1.9.1 2-.3 0-.1-.1-.1-.1-.4 0 0-.1-.3-.1-.6 0-.5.4-1 .7-1.7.6-1.3.5-2 .5-2.3v-.2c-.2-.9-1.2-1.3-1.8-1.5-.7-.3-1.9-.6-3.5-.7-.4 0-4.4-.1-4.9 1.4 0 .4.3 1.1.7 1.5z" fill="#26264f"/><linearGradient id="SVGID_9_" gradientUnits="userSpaceOnUse" x1="2331.463" y1="1589.024" x2="2317.331" y2="1599.097" gradientTransform="rotate(-29.808 -1314.256 5083.32)"><stop offset="0" stop-color="#fdc244"/><stop offset=".996" stop-color="#f17056"/></linearGradient><path d="M158.1 137.6c.1-.5.7-.4 1 .1.3.5.1 1.2-.4 1.4-.6.1-.7-.8-.6-1.5z" fill="url(#SVGID_9_)"/><linearGradient id="SVGID_10_" gradientUnits="userSpaceOnUse" x1="-2936.985" y1="269.743" x2="-2939.298" y2="285.469" gradientTransform="matrix(-1 0 0 1 -2746.494 0)"><stop offset="0" stop-color="#fdc244"/><stop offset=".996" stop-color="#f17056"/></linearGradient><path fill="url(#SVGID_10_)" d="M192.3 270.4l-.5 5.6-2 .9-.7-5.9z"/><path class="st14" d="M192.5 275.9l.4 1.9s-.1.8-4.5 1.9c-4.4 1.1-5.1-.7-4-.9 1-.3 4.3-1.9 4.3-1.9l2.7-1.5c.5-.2 1 0 1.1.5z"/><linearGradient id="SVGID_11_" gradientUnits="userSpaceOnUse" x1="-2902.887" y1="265.536" x2="-2906.434" y2="286.813" gradientTransform="matrix(-1 0 0 1 -2746.494 0)"><stop offset="0" stop-color="#fdc244"/><stop offset=".996" stop-color="#f17056"/></linearGradient><path fill="url(#SVGID_11_)" d="M157.9 267.3l2.1 5.5-1.1 1.5-4.3-5.2z"/><path class="st14" d="M160.4 272.3l1.3 1.4s.3.7-2.8 4c-3.2 3.2-4.7 2.1-3.9 1.3.7-.8 2.7-3.9 2.7-3.9l1.6-2.7c.1-.4.7-.4 1.1-.1z"/><linearGradient id="SVGID_12_" gradientUnits="userSpaceOnUse" x1="-2956.797" y1="224.166" x2="-2923.084" y2="239.789" gradientTransform="matrix(-1 0 0 1 -2746.494 0)"><stop offset="0" stop-color="#ff0041"/><stop offset="1" stop-color="#ff0086"/></linearGradient><path d="M186.9 201.7c.4 3.4 1 8.5 2.3 14.7 2.9 14 5.9 19.1 7.4 27.1 1.2 6.7 1.5 16.7-3.5 29.8-1.6.1-3.2.3-4.7.4-.4-10.7-2.5-18.7-4.2-23.9-3.3-10.1-9.1-21.1-13.1-38.2-.8-3.6-1.7-7.7.6-10.2 3.9-4.3 14-.3 15.2.3z" fill="url(#SVGID_12_)"/><linearGradient id="SVGID_13_" gradientUnits="userSpaceOnUse" x1="-2893.763" y1="205.775" x2="-2928.299" y2="249.767" gradientTransform="matrix(-1 0 0 1 -2746.494 0)"><stop offset="0" stop-color="#ff0041"/><stop offset="1" stop-color="#ff0086"/></linearGradient><path d="M184.5 197.8c-.4 2.9-1.3 7.3-3.8 11.9-4.4 7.9-9.6 9.1-15.6 17.2-1.4 1.9-5.4 7.6-7.4 15.3-2.9 11.3 0 21.3 2.3 27-1.4.9-2.8 1.7-4.3 2.6-3.4-4.3-9.5-13.1-10.9-25.6-2.9-25.7 16.7-43.6 18.9-45.6 6.9-.9 13.8-1.9 20.8-2.8z" fill="url(#SVGID_13_)"/><path class="st7" d="M175.5 137.1s3-.1 6.2 2.3c8.5 6.5 10.5 25.9 10.5 25.9.9 8.5 1.2 21.9-3.1 38.5-3.2.3-8.7.8-15.7 1.6-8.9 1-11.7 1.5-14.1-.3-3.3-2.5-2.7-7-3.5-13.4-.6-5.6-2.3-13.6-7.2-23.3-6.4 6.6-15.6 9.4-24.2 7.1-10.2-2.7-17.7-12-18.4-23.1.9-.6 2.6-1.6 3.5-2.2 3.2 2.7 8.1 7 15.4 7.8 11.6 1.3 22.1-5.4 26.5-8.2 6.4-4.1 13.3-7.5 19.9-11.4.6-.3 2.1-1.2 4.2-1.3z"/><linearGradient id="SVGID_14_" gradientUnits="userSpaceOnUse" x1="3410.782" y1="-2228.054" x2="3366.755" y2="-2254.738" gradientTransform="matrix(.966 .2584 -.408 .8335 -4092.754 1026.964)"><stop offset="0" stop-color="#ff0041"/><stop offset="1" stop-color="#ff0086"/></linearGradient><path fill="url(#SVGID_14_)" d="M91.4 23.6l-4.1 9.1-4.4-6.7z"/><linearGradient id="SVGID_15_" gradientUnits="userSpaceOnUse" x1="3386.347" y1="-2237.92" x2="3335.965" y2="-2291.193" gradientTransform="matrix(.966 .2584 -.408 .8335 -4092.754 1026.964)"><stop offset="0" stop-color="#ff0041"/><stop offset="1" stop-color="#ff0086"/></linearGradient><path d="M53 0l14.8 32.5c.3.6.8 1.1 1.5 1.3.6.2 1.4.2 2-.1l32.1-16.1c.4-.2.6-.6.6-1s-.3-.8-.7-.9L53 0z" fill="url(#SVGID_15_)"/><path class="st20" d="M91.4 23.6L53 0l33.2 26.2-1 2.6z"/><linearGradient id="SVGID_16_" gradientUnits="userSpaceOnUse" x1="-7068.708" y1="-1978.018" x2="-7049.914" y2="-1983.461" gradientTransform="scale(-1 1) rotate(-14.976 4071.886 -27504.485)"><stop offset="0" stop-color="#ff0041"/><stop offset="1" stop-color="#ff0086"/></linearGradient><path fill="url(#SVGID_16_)" d="M83.2 27.7l4.1 5-1.1-6.5z"/><linearGradient id="SVGID_17_" gradientUnits="userSpaceOnUse" x1="-3876.174" y1="-1548.759" x2="-3894.429" y2="-1559.823" gradientTransform="matrix(-.9966 -.0821 .1033 .9222 -3487.364 1139.755)"><stop offset="0" stop-color="#ff0041"/><stop offset="1" stop-color="#ff0086"/></linearGradient><path fill="url(#SVGID_17_)" d="M227.2 21.7l.3 4.1 2.7-2z"/><linearGradient id="SVGID_18_" gradientUnits="userSpaceOnUse" x1="-3886.306" y1="-1552.85" x2="-3907.196" y2="-1574.938" gradientTransform="matrix(-.9966 -.0821 .1033 .9222 -3487.364 1139.755)"><stop offset="0" stop-color="#ff0041"/><stop offset="1" stop-color="#ff0086"/></linearGradient><path d="M245.5 17.8l-10.3 10.6c-.2.2-.5.3-.8.3-.3 0-.6-.1-.8-.3l-10.3-10.8c-.1-.1-.1-.3-.1-.5.1-.2.2-.3.4-.2l21.9.9z" fill="url(#SVGID_18_)"/><path class="st20" d="M227.2 21.7l18.3-3.9-16.7 5.6.1 1.2z"/><linearGradient id="SVGID_19_" gradientUnits="userSpaceOnUse" x1="326.626" y1="-1352.195" x2="334.418" y2="-1354.452" gradientTransform="rotate(4.726 -16474.368 -1897.412)"><stop offset="0" stop-color="#ff0041"/><stop offset="1" stop-color="#ff0086"/></linearGradient><path fill="url(#SVGID_19_)" d="M229.8 24.5l-2.3 1.3 1.3-2.4z"/></svg>