<svg width="540" height="335" viewBox="0 0 540 335" fill="none" xmlns="http://www.w3.org/2000/svg">
<g opacity="0.2">
<mask id="path-1-inside-1_466_258" fill="white">
<path fill-rule="evenodd" clip-rule="evenodd" d="M8 0C3.58172 0 0 3.58173 0 8V291C0 295.418 3.58171 299 7.99999 299H444.58L497.396 333.946C498.726 334.826 500.5 333.873 500.5 332.279V299H532C536.418 299 540 295.418 540 291V8C540 3.58172 536.418 0 532 0H8Z"/>
</mask>
<path fill-rule="evenodd" clip-rule="evenodd" d="M8 0C3.58172 0 0 3.58173 0 8V291C0 295.418 3.58171 299 7.99999 299H444.58L497.396 333.946C498.726 334.826 500.5 333.873 500.5 332.279V299H532C536.418 299 540 295.418 540 291V8C540 3.58172 536.418 0 532 0H8Z" fill="white"/>
<path d="M444.58 299L445.131 298.166L444.88 298H444.58V299ZM497.396 333.946L497.948 333.113L497.948 333.112L497.396 333.946ZM500.5 299V298H499.5V299H500.5ZM1 8C1 4.13401 4.13401 1 8 1V-1C3.02944 -1 -1 3.02944 -1 8H1ZM1 291V8H-1V291H1ZM7.99999 298C4.134 298 1 294.866 1 291H-1C-1 295.971 3.02942 300 7.99999 300V298ZM444.58 298H7.99999V300H444.58V298ZM444.028 299.834L496.845 334.78L497.948 333.112L445.131 298.166L444.028 299.834ZM496.845 334.78C498.839 336.1 501.5 334.67 501.5 332.279H499.5C499.5 333.076 498.613 333.552 497.948 333.113L496.845 334.78ZM501.5 332.279V299H499.5V332.279H501.5ZM532 298H500.5V300H532V298ZM539 291C539 294.866 535.866 298 532 298V300C536.971 300 541 295.971 541 291H539ZM539 8V291H541V8H539ZM532 1C535.866 1 539 4.13401 539 8H541C541 3.02944 536.971 -1 532 -1V1ZM8 1H532V-1H8V1Z" fill="#00263E" mask="url(#path-1-inside-1_466_258)"/>
</g>
</svg>
