<svg width="48" height="48" viewBox="0 0 48 48" fill="none" xmlns="http://www.w3.org/2000/svg">
<path d="M12 45C11.7795 45 11.5575 44.9505 11.349 44.8515C10.8315 44.601 10.5 44.0775 10.5 43.5V36H6C3.519 36 1.5 33.981 1.5 31.5V7.5C1.5 5.019 3.519 3 6 3H42C44.481 3 46.5 5.019 46.5 7.5V31.5C46.5 33.981 44.481 36 42 36H23.7765L12.9375 44.6715C12.666 44.889 12.3345 45 12 45ZM6 6C5.172 6 4.5 6.6735 4.5 7.5V31.5C4.5 32.3265 5.172 33 6 33H12C12.8295 33 13.5 33.6705 13.5 34.5V40.38L22.3125 33.3285C22.5795 33.1155 22.908 33 23.25 33H42C42.828 33 43.5 32.3265 43.5 31.5V7.5C43.5 6.6735 42.828 6 42 6H6Z" fill="white"/>
<path d="M36 18H12C11.1705 18 10.5 17.328 10.5 16.5C10.5 15.672 11.1705 15 12 15H36C36.8295 15 37.5 15.672 37.5 16.5C37.5 17.328 36.8295 18 36 18Z" fill="white"/>
<path d="M24 24H12C11.1705 24 10.5 23.328 10.5 22.5C10.5 21.672 11.1705 21 12 21H24C24.8295 21 25.5 21.672 25.5 22.5C25.5 23.328 24.8295 24 24 24Z" fill="white"/>
</svg>
