<svg width="28" height="28" viewBox="0 0 28 28" fill="none" xmlns="http://www.w3.org/2000/svg">
<path d="M14 2.1875C11.6637 2.1875 9.37989 2.88029 7.43733 4.17827C5.49478 5.47624 3.98074 7.3211 3.08668 9.47955C2.19262 11.638 1.95869 14.0131 2.41448 16.3045C2.87027 18.5959 3.9953 20.7007 5.64731 22.3527C7.29931 24.0047 9.4041 25.1297 11.6955 25.5855C13.9869 26.0413 16.362 25.8074 18.5205 24.9133C20.6789 24.0193 22.5238 22.5052 23.8217 20.5627C25.1197 18.6201 25.8125 16.3363 25.8125 14C25.809 10.8682 24.5634 7.86566 22.3489 5.65114C20.1343 3.43662 17.1318 2.19097 14 2.1875ZM23.0923 12.6875H19.6394C19.4659 10.1136 18.6641 7.62155 17.3042 5.42937C18.8252 6.01842 20.1625 7.00075 21.1795 8.27597C22.1964 9.55119 22.8565 11.0736 23.0923 12.6875ZM14 22.6406C12.9763 21.4583 11.3247 19.017 10.9977 15.3125H17.0067C16.8433 17.3564 16.2023 19.3333 15.1353 21.0842C14.7996 21.6329 14.42 22.1534 14 22.6406ZM10.9977 12.6875C11.1611 10.6436 11.8021 8.66667 12.8691 6.91578C13.2033 6.36726 13.5816 5.84675 14 5.35937C15.0238 6.54172 16.6753 8.98297 17.0023 12.6875H10.9977ZM10.6958 5.42937C9.33593 7.62155 8.53415 10.1136 8.36063 12.6875H4.90766C5.14347 11.0736 5.80359 9.55119 6.82054 8.27597C7.83749 7.00075 9.1748 6.01842 10.6958 5.42937ZM4.90766 15.3125H8.36063C8.53415 17.8864 9.33593 20.3784 10.6958 22.5706C9.1748 21.9816 7.83749 20.9992 6.82054 19.724C5.80359 18.4488 5.14347 16.9264 4.90766 15.3125ZM17.3042 22.5706C18.6641 20.3784 19.4659 17.8864 19.6394 15.3125H23.0923C22.8565 16.9264 22.1964 18.4488 21.1795 19.724C20.1625 20.9992 18.8252 21.9816 17.3042 22.5706Z" fill="white"/>
</svg>
