<svg width="25" height="25" viewBox="0 0 25 25" fill="none" xmlns="http://www.w3.org/2000/svg">
<g clip-path="url(#clip0_156_943)">
<path d="M17.1807 6.60973C16.6957 6.11934 15.9055 6.11315 15.413 6.59595L6.17337 15.7278L2.15684 11.5697C1.67778 11.0704 0.884701 11.054 0.385463 11.533C-0.11383 12.0121 -0.130218 12.8052 0.348834 13.3044C0.351004 13.3066 0.353121 13.3089 0.355291 13.3111L5.2526 18.3863C5.48697 18.6254 5.8073 18.7608 6.14211 18.7621H6.1559C6.48436 18.7611 6.79932 18.6311 7.03287 18.4001L17.1694 8.37747C17.6592 7.89179 17.6641 7.10164 17.1807 6.60973Z" fill="#F58A1E"/>
<path d="M12.7688 18.3863C13.0026 18.6248 13.3219 18.7601 13.6558 18.7621H13.6696C13.9981 18.7611 14.313 18.6311 14.5466 18.4001L24.6832 8.37749C25.1427 7.86013 25.0957 7.06829 24.5784 6.60883C24.1094 6.19229 23.4047 6.18681 22.9292 6.59597L13.6934 15.7278L13.3639 15.3858C12.8849 14.8865 12.0918 14.87 11.5925 15.3491C11.0932 15.8281 11.0768 16.6212 11.5558 17.1205C11.558 17.1227 11.5602 17.125 11.5624 17.1272L12.7688 18.3863Z" fill="#F58A1E"/>
</g>
<defs>
<clipPath id="clip0_156_943">
<rect width="25" height="25" fill="white"/>
</clipPath>
</defs>
</svg>
