<svg width="22" height="19" viewBox="0 0 22 19" fill="none" xmlns="http://www.w3.org/2000/svg">
<path d="M21.5456 8.70495L14.0456 1.20495C13.8883 1.04749 13.6879 0.940223 13.4696 0.896711C13.2513 0.8532 13.0251 0.875401 12.8194 0.960506C12.6138 1.04561 12.438 1.1898 12.3143 1.37482C12.1907 1.55985 12.1247 1.7774 12.1246 1.99995V5.44432C9.70964 5.73682 7.09402 6.93401 4.92933 8.76963C2.19558 11.089 0.493079 14.0843 0.134954 17.2071C0.0986739 17.5205 0.162118 17.8373 0.316265 18.1126C0.470411 18.3878 0.707413 18.6075 0.993567 18.7403C1.27972 18.8731 1.60046 18.9123 1.91017 18.8523C2.21989 18.7923 2.50281 18.6362 2.7187 18.4062C3.69933 17.3618 7.12495 14.1181 12.1246 13.6793V16.9999C12.1248 17.2223 12.1909 17.4396 12.3146 17.6244C12.4382 17.8093 12.6138 17.9533 12.8193 18.0384C13.0247 18.1234 13.2507 18.1457 13.4688 18.1024C13.6869 18.0591 13.8873 17.9521 14.0446 17.7949L21.5446 10.2949C21.7554 10.0841 21.8739 9.79827 21.8741 9.50014C21.8743 9.20201 21.7561 8.91601 21.5456 8.70495ZM14.3746 14.2812V12.4999C14.3746 12.2016 14.2561 11.9154 14.0451 11.7045C13.8342 11.4935 13.548 11.3749 13.2496 11.3749C8.65589 11.3749 5.1337 13.3962 2.95683 15.1353C3.62527 13.4328 4.79714 11.8334 6.38527 10.4862C8.49652 8.69463 11.0625 7.62495 13.2496 7.62495C13.548 7.62495 13.8342 7.50642 14.0451 7.29544C14.2561 7.08446 14.3746 6.79832 14.3746 6.49995V4.7187L19.1559 9.49995L14.3746 14.2812Z" fill="#00263E"/>
</svg>
