<svg width="32" height="32" viewBox="0 0 32 32" fill="none" xmlns="http://www.w3.org/2000/svg">
<path d="M29.2973 26.25C27.5835 23.2422 24.9074 20.8985 21.6998 19.5963C23.2949 18.3999 24.4732 16.7321 25.0677 14.8289C25.6622 12.9257 25.6428 10.8837 25.0123 8.99211C24.3818 7.10055 23.1721 5.45532 21.5546 4.28948C19.937 3.12363 17.9937 2.49628 15.9998 2.49628C14.0059 2.49628 12.0626 3.12363 10.4451 4.28948C8.82754 5.45532 7.61784 7.10055 6.98732 8.99211C6.3568 10.8837 6.33742 12.9257 6.93193 14.8289C7.52644 16.7321 8.70471 18.3999 10.2998 19.5963C7.09221 20.8985 4.41612 23.2422 2.70231 26.25C2.59612 26.4208 2.52534 26.6111 2.49419 26.8098C2.46303 27.0085 2.47214 27.2113 2.52096 27.4064C2.56979 27.6015 2.65733 27.7847 2.7784 27.9453C2.89946 28.1058 3.05157 28.2404 3.22568 28.341C3.39979 28.4416 3.59235 28.5062 3.79191 28.5308C3.99147 28.5555 4.19396 28.5398 4.38733 28.4847C4.58071 28.4296 4.76103 28.3361 4.91757 28.2099C5.07411 28.0837 5.20367 27.9273 5.29856 27.75C7.56356 23.835 11.5636 21.5 15.9998 21.5C20.4361 21.5 24.4361 23.8363 26.7011 27.75C26.9067 28.0807 27.2329 28.3184 27.6106 28.413C27.9884 28.5075 28.3881 28.4515 28.7252 28.2567C29.0624 28.0619 29.3106 27.7436 29.4173 27.3691C29.5241 26.9946 29.4811 26.5933 29.2973 26.25ZM9.49981 12C9.49981 10.7144 9.88103 9.45774 10.5953 8.38882C11.3095 7.3199 12.3247 6.48678 13.5124 5.99481C14.7001 5.50284 16.007 5.37412 17.2679 5.62492C18.5288 5.87573 19.687 6.49479 20.596 7.40383C21.505 8.31287 22.1241 9.47106 22.3749 10.7319C22.6257 11.9928 22.497 13.2997 22.005 14.4875C21.5131 15.6752 20.6799 16.6903 19.611 17.4046C18.5421 18.1188 17.2854 18.5 15.9998 18.5C14.2765 18.498 12.6244 17.8126 11.4058 16.594C10.1873 15.3755 9.5018 13.7233 9.49981 12Z" fill="white"/>
</svg>
