<svg width="17" height="10" viewBox="0 0 17 10" fill="none" xmlns="http://www.w3.org/2000/svg">
<path d="M16.4511 2.38775L9.26359 9.57525C9.16343 9.67576 9.04441 9.75551 8.91336 9.80992C8.78231 9.86434 8.64181 9.89235 8.49992 9.89235C8.35802 9.89235 8.21752 9.86434 8.08647 9.80992C7.95542 9.75551 7.83641 9.67576 7.73625 9.57525L0.548745 2.38775C0.346207 2.18521 0.232422 1.91051 0.232422 1.62408C0.232422 1.33764 0.346207 1.06294 0.548745 0.860404C0.751284 0.657866 1.02598 0.544081 1.31242 0.544081C1.59885 0.544081 1.87355 0.657866 2.07609 0.860404L8.50082 7.28513L14.9255 0.859506C15.1281 0.656968 15.4028 0.543182 15.6892 0.543182C15.9756 0.543182 16.2503 0.656968 16.4529 0.859506C16.6554 1.06204 16.7692 1.33675 16.7692 1.62318C16.7692 1.90961 16.6554 2.18431 16.4529 2.38685L16.4511 2.38775Z" fill="#00263E"/>
</svg>
