<svg width="31" height="31" viewBox="0 0 31 31" fill="none" xmlns="http://www.w3.org/2000/svg">
<path d="M29 18.5C28.6022 18.5 28.2206 18.658 27.9393 18.9393C27.658 19.2206 27.5 19.6022 27.5 20V26C27.5 26.3978 27.342 26.7794 27.0607 27.0607C26.7794 27.342 26.3978 27.5 26 27.5H5C4.60218 27.5 4.22064 27.342 3.93934 27.0607C3.65804 26.7794 3.5 26.3978 3.5 26V20C3.5 19.6022 3.34196 19.2206 3.06066 18.9393C2.77936 18.658 2.39782 18.5 2 18.5C1.60218 18.5 1.22064 18.658 0.93934 18.9393C0.658035 19.2206 0.5 19.6022 0.5 20V26C0.5 27.1935 0.974106 28.3381 1.81802 29.182C2.66193 30.0259 3.80653 30.5 5 30.5H26C27.1935 30.5 28.3381 30.0259 29.182 29.182C30.0259 28.3381 30.5 27.1935 30.5 26V20C30.5 19.6022 30.342 19.2206 30.0607 18.9393C29.7794 18.658 29.3978 18.5 29 18.5ZM14.435 21.065C14.5777 21.2016 14.7459 21.3086 14.93 21.38C15.1096 21.4594 15.3037 21.5003 15.5 21.5003C15.6963 21.5003 15.8904 21.4594 16.07 21.38C16.2541 21.3086 16.4223 21.2016 16.565 21.065L22.565 15.065C22.8475 14.7825 23.0061 14.3995 23.0061 14C23.0061 13.6005 22.8475 13.2175 22.565 12.935C22.2825 12.6525 21.8995 12.4939 21.5 12.4939C21.1005 12.4939 20.7175 12.6525 20.435 12.935L17 16.385V2C17 1.60218 16.842 1.22064 16.5607 0.93934C16.2794 0.658035 15.8978 0.5 15.5 0.5C15.1022 0.5 14.7206 0.658035 14.4393 0.93934C14.158 1.22064 14 1.60218 14 2V16.385L10.565 12.935C10.4251 12.7951 10.2591 12.6842 10.0764 12.6085C9.89364 12.5328 9.69779 12.4939 9.5 12.4939C9.30221 12.4939 9.10636 12.5328 8.92363 12.6085C8.74089 12.6842 8.57486 12.7951 8.435 12.935C8.29514 13.0749 8.1842 13.2409 8.10851 13.4236C8.03282 13.6064 7.99386 13.8022 7.99386 14C7.99386 14.1978 8.03282 14.3936 8.10851 14.5764C8.1842 14.7591 8.29514 14.9251 8.435 15.065L14.435 21.065Z" fill="#F58A1E"/>
</svg>
